# xmcd CD database file
#
# Track frame offsets:
#	182
#	13732
#	25852
#	37455
#	56725
#	88622
#	101175
#	112825
#	129620
#	144150
#	155210
#	169215
#	183320
#	195887
#	212007
#	223255
#	241140
#	259670
#	272857
#	289162
#
# Disc length: 4198 seconds
#
# Revision: 0
# Processed by: cddbd v1.5.1PL0 Copyright (c) Steve Scherf et al.
# Submitted via: CDex 1.51
#
DISCID=2d106414
DTITLE=The Beatles - Lennon=McCartney Songbook Vol YESTERDAY
DYEAR=1900
DGENRE=Pop
TTITLE0=OB-LA-DI,OB-LA-DA
TTITLE1=AND I LOVE HIM
TTITLE2=HERE,THERE AND EVERYWHRE
TTITLE3=THE FOOL ON THE HILL
TTITLE4=SHE'S LEAVING HOME
TTITLE5=DAY TRIPPER
TTITLE6=ELEANOR RIGBY
TTITLE7=WE CAN WORK IT OUT
TTITLE8=HEY JUDE
TTITLE9=YESTERDAY
TTITLE10=GOT TO GET YOU INTO MY LIFE
TTITLE11=BLACKBIRD
TTITLE12=CARRY THAT WEIGHT
TTITLE13=LET IT BE
TTITLE14=GET BACK
TTITLE15=DON'T LET ME DOWN
TTITLE16=HEY JUDE
TTITLE17=LET IT BE
TTITLE18=THE LONG AND WINDING ROAD
TTITLE19=IMAGINE*
EXTD=
EXTT0=
EXTT1=
EXTT2=
EXTT3=
EXTT4=
EXTT5=
EXTT6=
EXTT7=
EXTT8=
EXTT9=
EXTT10=
EXTT11=
EXTT12=
EXTT13=
EXTT14=
EXTT15=
EXTT16=
EXTT17=
EXTT18=
EXTT19=
PLAYORDER=
